<svg width="159" height="40" viewBox="0 0 159 40" fill="none" xmlns="http://www.w3.org/2000/svg">
<path d="M20.0573 9.80307L24.047 0L23.971 10.5801L31.4188 3.04453L27.2879 12.7905L37.0615 8.67001L29.5046 16.098L40.1147 16.021L30.2838 19.9993L40.1147 23.9777L29.5046 23.902L37.0615 31.3287L27.2879 27.2095L31.4188 36.9541L23.971 29.4198L24.047 40L20.0573 30.1956L16.0677 40L16.145 29.4198L8.69591 36.9541L12.8281 27.2095L3.05316 31.3287L10.6101 23.902L0 23.9777L9.83218 19.9993L0 16.021L10.6101 16.098L3.05316 8.67001L12.8281 12.7905L8.69591 3.04453L16.145 10.5801L16.0677 0L20.0573 9.80307Z" fill="#F07423"/>
<path d="M19.0556 37.1627C19.0556 36.6101 19.5045 36.1638 20.0587 36.1625C20.6102 36.1625 21.0604 36.6114 21.0604 37.164C21.0604 37.7153 20.6102 38.1629 20.0573 38.1629C19.5045 38.1629 19.0556 37.7153 19.0556 37.164V37.1627Z" fill="#F07423"/>
<path d="M19.0543 2.82801C19.0543 2.27543 19.5045 1.82778 20.0573 1.82778C20.6102 1.82778 21.0591 2.2741 21.0604 2.82669C21.0604 3.37661 20.6102 3.82692 20.0573 3.82692C19.5045 3.82692 19.0556 3.37794 19.0543 2.82669V2.82801Z" fill="#F07423"/>
<path d="M25.7201 36.2382C25.5083 35.7281 25.752 35.1436 26.2636 34.9311C26.7738 34.7212 27.3625 34.9643 27.573 35.473C27.7848 35.9831 27.541 36.5676 27.0295 36.7788C26.518 36.99 25.9319 36.7469 25.7201 36.2382Z" fill="#F07423"/>
<path d="M12.543 4.51765C12.3312 4.00624 12.575 3.42178 13.0865 3.21057C13.598 2.99937 14.1841 3.24112 14.3973 3.7512C14.6091 4.25995 14.3653 4.84708 13.8538 5.05828C13.3423 5.26816 12.7561 5.02507 12.543 4.51765Z" fill="#F07423"/>
<path d="M31.5213 32.8403C31.1297 32.4498 31.1297 31.8162 31.5213 31.4243C31.9116 31.0351 32.5497 31.0351 32.94 31.4243C33.3317 31.8148 33.3303 32.4484 32.94 32.839C32.5484 33.2295 31.913 33.2295 31.5213 32.839V32.8403Z" fill="#F07423"/>
<path d="M7.17466 8.56374C6.78302 8.17321 6.78302 7.5396 7.17466 7.14907C7.56629 6.75854 8.20037 6.75854 8.59334 7.14907C8.98364 7.53827 8.98364 8.17321 8.59334 8.56507C8.2017 8.95427 7.56629 8.95427 7.17466 8.56507V8.56374Z" fill="#F07423"/>
<path d="M35.5789 27.4885C35.0674 27.2773 34.8249 26.6928 35.0354 26.1814C35.2472 25.674 35.836 25.4295 36.3462 25.6408C36.8577 25.852 37.1002 26.4377 36.8883 26.9478C36.6765 27.4579 36.0891 27.6997 35.5789 27.4885Z" fill="#F07423"/>
<path d="M3.76849 14.3499C3.25697 14.1387 3.01453 13.5529 3.22633 13.0429C3.43813 12.5328 4.02425 12.291 4.53578 12.5009C5.04597 12.7121 5.28974 13.2979 5.07927 13.808C4.86614 14.3167 4.28002 14.5585 3.76849 14.3486V14.3499Z" fill="#F07423"/>
<path d="M37.2733 20.9943C36.7192 20.9943 36.2716 20.5466 36.2703 19.994C36.2703 19.4441 36.7218 18.9938 37.2747 18.9951C37.8288 18.9951 38.2764 19.4441 38.2764 19.9954C38.2764 20.5466 37.8261 20.9943 37.2733 20.9943Z" fill="#F07423"/>
<path d="M2.84136 20.9956C2.2872 20.9956 1.83962 20.5466 1.83962 19.9953C1.83962 19.4441 2.2872 18.9964 2.84136 18.9951C3.39284 18.9951 3.84309 19.4441 3.84442 19.9953C3.84442 20.5466 3.39418 20.9943 2.84136 20.9956Z" fill="#F07423"/>
<path d="M36.3462 14.3499C35.8347 14.5612 35.2485 14.3181 35.0354 13.808C34.8249 13.2992 35.0687 12.7121 35.5789 12.5022C36.0904 12.291 36.6765 12.5341 36.8883 13.0442C37.1002 13.5543 36.8564 14.1387 36.3462 14.3499Z" fill="#F07423"/>
<path d="M4.53578 27.4898C4.02426 27.701 3.4368 27.4579 3.225 26.9478C3.0132 26.4377 3.25564 25.8533 3.76716 25.6408C4.27735 25.4295 4.86614 25.6726 5.07927 26.1827C5.28974 26.6928 5.04597 27.2773 4.53578 27.4898Z" fill="#F07423"/>
<path d="M32.94 8.56374C32.5484 8.95427 31.913 8.95427 31.52 8.56374C31.1297 8.17454 31.1297 7.53827 31.52 7.14907C31.9116 6.75854 32.5471 6.75987 32.9387 7.14907C33.3303 7.5396 33.329 8.17321 32.9387 8.56241L32.94 8.56374Z" fill="#F07423"/>
<path d="M8.59467 32.8416C8.20303 33.2322 7.56763 33.2322 7.17599 32.8416C6.78436 32.4511 6.78436 31.8175 7.17599 31.427C7.56629 31.0378 8.20303 31.0378 8.596 31.427C8.98631 31.8175 8.98631 32.4511 8.596 32.8416H8.59467Z" fill="#F07423"/>
<path d="M27.5717 4.51765C27.3599 5.02773 26.7738 5.26948 26.2609 5.05961C25.752 4.8484 25.5069 4.26128 25.7187 3.75253C25.9305 3.24245 26.518 3.0007 27.0295 3.2119C27.541 3.42311 27.7835 4.0089 27.5717 4.51765Z" fill="#F07423"/>
<path d="M14.3959 36.2395C14.1841 36.7496 13.5967 36.9913 13.0852 36.7801C12.5736 36.5689 12.3312 35.9845 12.5417 35.4744C12.7535 34.9656 13.3409 34.7225 13.8524 34.9324C14.3626 35.145 14.6051 35.7294 14.3946 36.2395H14.3959Z" fill="#F07423"/>
<path d="M60.1968 31.9845H61.3411V34.7035C61.3411 35.1363 61.3551 35.4156 61.3831 35.5433C61.4331 35.7488 61.5491 35.9143 61.7332 36.038C61.9172 36.1617 62.1693 36.2235 62.4894 36.2235C62.8095 36.2235 63.0596 36.1657 63.2236 36.046C63.3876 35.9283 63.4877 35.7847 63.5217 35.6131C63.5557 35.4416 63.5717 35.1583 63.5717 34.7613V31.9845H64.716V34.6217C64.716 35.2261 64.684 35.651 64.624 35.8984C64.562 36.1477 64.4479 36.3572 64.2819 36.5287C64.1158 36.7003 63.8938 36.8359 63.6157 36.9377C63.3376 37.0394 62.9735 37.0893 62.5254 37.0893C61.9853 37.0893 61.5752 37.0334 61.2951 36.9237C61.015 36.814 60.7949 36.6684 60.6329 36.4928C60.4709 36.3153 60.3648 36.1298 60.3128 35.9363C60.2388 35.649 60.2008 35.2241 60.2008 34.6616V31.9845H60.1968Z" fill="#21409A"/>
<path d="M69.3233 36.9895V31.9845H70.4416L72.7722 35.3278V31.9845H73.8405V36.9895H72.6862L70.3916 33.726V36.9895H69.3233Z" fill="#21409A"/>
<path d="M78.4518 36.9895V31.9845H79.5561V36.9895H78.4518Z" fill="#21409A"/>
<path d="M86.0898 36.9895L84.1633 31.9845H85.3436L86.708 35.6889L88.0284 31.9845H89.1827L87.2522 36.9895H86.0898Z" fill="#21409A"/>
<path d="M93.7919 36.9895V31.9845H97.707V32.8303H94.8582V33.9394H97.509V34.7833H94.8582V36.1457H97.809V36.9895H93.7919Z" fill="#21409A"/>
<path d="M102.416 36.9895V31.9845H104.553C105.089 31.9845 105.481 32.0284 105.723 32.1182C105.965 32.2079 106.161 32.3675 106.307 32.5969C106.453 32.8283 106.527 33.0896 106.527 33.3869C106.527 33.7619 106.415 34.0731 106.195 34.3185C105.973 34.5638 105.641 34.7174 105.201 34.7813C105.421 34.9089 105.601 35.0506 105.745 35.2022C105.887 35.3538 106.079 35.6251 106.321 36.0161L106.936 36.9915H105.721L104.987 35.9024C104.727 35.5134 104.549 35.268 104.453 35.1663C104.357 35.0645 104.255 34.9947 104.147 34.9568C104.039 34.9209 103.869 34.9009 103.635 34.9009H103.429V36.9895H102.414H102.416ZM103.431 34.101H104.183C104.669 34.101 104.973 34.0811 105.095 34.0392C105.217 33.9993 105.311 33.9275 105.379 33.8277C105.447 33.728 105.481 33.6023 105.481 33.4527C105.481 33.2851 105.437 33.1475 105.347 33.0438C105.257 32.94 105.129 32.8742 104.965 32.8483C104.883 32.8363 104.635 32.8303 104.223 32.8303H103.431V34.101Z" fill="#21409A"/>
<path d="M111.543 35.3638L112.635 35.268C112.701 35.6011 112.833 35.8445 113.035 36.0001C113.235 36.1557 113.507 36.2335 113.847 36.2335C114.21 36.2335 114.482 36.1657 114.664 36.026C114.848 35.8864 114.938 35.7248 114.938 35.5393C114.938 35.4216 114.9 35.3199 114.822 35.2361C114.744 35.1543 114.61 35.0805 114.418 35.0186C114.286 34.9768 113.985 34.9029 113.517 34.7992C112.917 34.6636 112.495 34.498 112.253 34.3025C111.913 34.0252 111.741 33.6881 111.741 33.2891C111.741 33.0318 111.821 32.7924 111.981 32.569C112.141 32.3476 112.373 32.176 112.675 32.0603C112.977 31.9446 113.341 31.8848 113.769 31.8848C114.468 31.8848 114.992 32.0224 115.344 32.2997C115.696 32.577 115.882 32.946 115.898 33.4088L114.776 33.4527C114.728 33.1934 114.626 33.0079 114.466 32.8961C114.308 32.7824 114.071 32.7266 113.755 32.7266C113.439 32.7266 113.175 32.7864 112.989 32.9081C112.871 32.9859 112.811 33.0896 112.811 33.2193C112.811 33.339 112.867 33.4407 112.979 33.5245C113.119 33.6322 113.463 33.7439 114.009 33.8616C114.556 33.9773 114.96 34.099 115.22 34.2227C115.482 34.3484 115.686 34.5179 115.834 34.7354C115.982 34.9508 116.056 35.2181 116.056 35.5373C116.056 35.8266 115.966 36.0959 115.79 36.3472C115.614 36.5986 115.364 36.7861 115.04 36.9077C114.716 37.0314 114.314 37.0913 113.831 37.0913C113.129 37.0913 112.589 36.9457 112.213 36.6504C111.837 36.3572 111.611 35.9283 111.537 35.3638H111.543Z" fill="#21409A"/>
<path d="M120.671 36.9895V31.9845H121.762V36.9895H120.671Z" fill="#21409A"/>
<path d="M128.057 36.9895V32.8303H126.371V31.9845H130.89V32.8303H129.208V36.9895H128.057Z" fill="#21409A"/>
<path d="M137.464 36.9895V34.883L135.497 31.9845H136.77L138.032 33.9634L139.27 31.9845H140.519L138.546 34.891V36.9915H137.466L137.464 36.9895Z" fill="#21409A"/>
<path d="M150.242 9.4541H147.051C146.785 9.4541 146.645 9.54986 146.551 9.73139C146.454 9.91292 141.819 18.6882 141.819 18.6882L137.494 10.4715H137.496C137.268 10.0386 137.122 9.7633 137.106 9.73139C137.01 9.54986 136.872 9.4541 136.606 9.4541H133.413C133.169 9.4541 133.091 9.56182 133.091 9.76131V24.178C133.091 24.3515 133.167 24.4732 133.369 24.4732H136.326C136.53 24.4732 136.606 24.3515 136.606 24.178V15.9553C136.606 15.9553 141.139 24.176 141.175 24.2478C141.249 24.4014 141.355 24.4732 141.487 24.4732H142.145C142.289 24.4732 142.383 24.4193 142.479 24.2478C142.549 24.1241 147.051 15.9553 147.051 15.9553V24.178C147.051 24.3515 147.127 24.4732 147.329 24.4732H150.286C150.488 24.4732 150.564 24.3515 150.564 24.178V9.76131C150.564 9.56382 150.486 9.4541 150.242 9.4541Z" fill="#F37321"/>
<path d="M60.315 9.4541H50.4663C50.2223 9.4541 50.1442 9.56182 50.1442 9.76131C50.1442 9.86703 50.1442 15.4605 50.1442 15.4605H48.4298C48.2177 15.4685 48.1397 15.5723 48.1377 15.7518V18.1615C48.1377 18.361 48.2157 18.4667 48.4598 18.4667H50.1442C50.1442 18.4667 50.1442 24.1181 50.1442 24.166C50.1442 24.3635 50.2223 24.4732 50.4663 24.4732H60.315C64.4741 24.4732 67.8451 21.1179 67.8451 16.9726C67.8451 12.8274 64.4721 9.4561 60.315 9.4561V9.4541ZM59.8129 21.475H53.6572V18.4667H58.2064C58.4505 18.4667 58.5285 18.359 58.5285 18.1615C58.5285 18.1117 58.5285 15.8376 58.5285 15.8376C58.5285 15.8376 58.5285 15.7877 58.5285 15.7658C58.5285 15.5683 58.4505 15.4605 58.2064 15.4605H53.6572V12.4663H59.8129C62.3076 12.4663 64.3321 14.4831 64.3321 16.9726C64.3321 19.4622 62.3096 21.4769 59.8129 21.4769V21.475Z" fill="#F37321"/>
<path d="M90.0311 9.4541H87.0743C86.8703 9.4541 86.7962 9.57579 86.7962 9.74934V24.178C86.7962 24.3515 86.8723 24.4732 87.0743 24.4732H90.0311C90.2352 24.4732 90.3112 24.3515 90.3112 24.178V9.74934C90.3112 9.57579 90.2352 9.4541 90.0311 9.4541Z" fill="#F37321"/>
<path d="M113.147 9.4541H110.191C109.987 9.4541 109.913 9.57579 109.913 9.74934V20.2082C109.913 20.2082 101.546 10.0506 101.328 9.78126C101.11 9.51195 100.866 9.4541 100.568 9.4541H97.1591C96.915 9.4541 96.837 9.56182 96.837 9.76131V24.178C96.837 24.3515 96.913 24.4732 97.115 24.4732H100.072C100.274 24.4732 100.35 24.3515 100.35 24.178V13.727C100.35 13.727 108.816 24.0124 108.998 24.2238C109.18 24.4373 109.302 24.4732 109.622 24.4732H113.103C113.347 24.4732 113.425 24.3655 113.425 24.166V9.74934C113.425 9.57579 113.349 9.4541 113.145 9.4541H113.147Z" fill="#F37321"/>
<path d="M75.3651 24.4692C75.1531 24.4772 75.075 24.5809 75.073 24.7604V27.1702C75.073 27.3697 75.1511 27.4754 75.3951 27.4754H77.7618C78.0058 27.4754 78.0839 27.3677 78.0839 27.1702V24.7624H78.0819C78.0779 24.5809 78.0018 24.4772 77.7898 24.4692H75.3651Z" fill="#F37321"/>
<path d="M125.503 9.81716C125.373 9.55783 125.263 9.4541 124.893 9.4541H121.7C121.33 9.4541 121.218 9.55584 121.09 9.81716C121.018 9.96279 118.741 14.5768 116.762 18.5884C117.341 18.1296 118.105 17.7686 119.131 17.7686H121.034L123.296 13.1824L125.903 18.4667H120.689C120.433 18.4648 120.035 18.4648 119.407 18.4648C117.499 18.4648 116.368 19.3744 115.858 20.4217C115.732 20.679 114.228 23.7251 113.98 24.2278C113.902 24.3874 114 24.4732 114.16 24.4732H117.523C117.707 24.4732 117.773 24.3774 117.841 24.2378C117.911 24.0982 119.205 21.471 119.205 21.471C119.205 21.471 120.994 21.467 123.296 21.467C125.599 21.467 126.147 18.9615 126.147 18.9615C126.147 18.9615 128.68 24.0982 128.748 24.2378C128.818 24.3774 128.884 24.4732 129.066 24.4732H132.429C132.591 24.4732 132.689 24.3874 132.611 24.2278C131.672 22.3248 125.621 10.0585 125.501 9.81916L125.503 9.81716Z" fill="#F37321"/>
<path d="M84.0115 20.4217C83.5013 19.3744 82.371 18.4648 80.4625 18.4648L73.9667 18.4667L76.5734 13.1824L78.8361 17.7686H80.7386C81.7649 17.7686 82.5291 18.1296 83.1072 18.5884C81.1287 14.5748 78.8521 9.96279 78.78 9.81716C78.65 9.55783 78.54 9.4541 78.1699 9.4541H74.977C74.6069 9.4541 74.4949 9.55584 74.3668 9.81716C74.2468 10.0565 68.1972 22.3228 67.2569 24.2258C67.1789 24.3854 67.2769 24.4712 67.439 24.4712H70.8019C70.9859 24.4712 71.0519 24.3754 71.12 24.2358C71.188 24.0962 73.7207 18.9595 73.7207 18.9595C73.7207 18.9595 74.2688 21.465 76.5714 21.465C78.8741 21.465 80.6626 21.469 80.6626 21.469C80.6626 21.469 81.9569 24.0962 82.0269 24.2358C82.0949 24.3754 82.163 24.4712 82.345 24.4712H85.7079C85.87 24.4712 85.968 24.3854 85.888 24.2258C85.6399 23.7231 84.1335 20.679 84.0095 20.4197L84.0115 20.4217Z" fill="#F37321"/>
</svg>
